<?xml version="1.0" standalone="no"?>
<!DOCTYPE svg PUBLIC "-//W3C//DTD SVG 20010904//EN"
 "http://www.w3.org/TR/2001/REC-SVG-20010904/DTD/svg10.dtd">
<svg version="1.0" xmlns="http://www.w3.org/2000/svg"
 width="305.000000pt" height="305.000000pt" viewBox="0 0 305.000000 305.000000"
 preserveAspectRatio="xMidYMid meet">
<metadata>
Created by potrace 1.11, written by Peter Selinger 2001-2013
</metadata>
<g transform="translate(0.000000,305.000000) scale(0.100000,-0.100000)"
fill="#000000" stroke="none">
<path d="M605 3039 c-49 -4 -105 -10 -123 -14 l-33 -6 79 -84 c98 -103 196
-225 240 -298 50 -84 103 -241 105 -313 2 -58 4 -63 35 -83 27 -18 32 -27 32
-60 0 -31 -6 -44 -26 -60 -33 -26 -45 -26 -94 -1 -22 11 -43 20 -49 20 -5 0
-59 -83 -120 -184 -61 -101 -131 -210 -156 -242 -50 -64 -51 -66 -30 -84 13
-11 24 -9 64 10 63 29 83 22 120 -43 16 -29 46 -66 65 -84 26 -23 36 -39 36
-61 0 -38 23 -62 59 -62 28 0 61 26 61 49 0 7 7 10 18 7 85 -25 122 -19 122
23 0 34 -28 61 -64 61 -44 0 -88 28 -84 53 10 70 215 -26 254 -119 11 -27 11
-40 -1 -81 -16 -54 -74 -146 -135 -216 l-42 -47 -43 30 c-24 17 -56 48 -72 69
-38 54 -61 67 -81 48 -13 -14 -12 -20 12 -61 14 -25 51 -66 81 -92 l54 -47
-41 -51 c-61 -75 -121 -136 -133 -136 -6 0 -27 11 -47 25 -20 14 -44 25 -52
25 -8 0 -28 11 -44 25 -36 30 -68 32 -82 4 -17 -31 10 -66 62 -79 75 -19 135
-44 115 -48 -10 -2 -31 1 -45 7 -42 17 -121 17 -138 -1 -20 -20 -9 -44 27 -57
56 -20 38 -44 -80 -106 -92 -48 -113 -81 -131 -199 -18 -117 -43 -175 -130
-305 -43 -64 -81 -126 -85 -138 -6 -22 -4 -23 68 -23 336 0 718 221 948 550
35 51 77 110 92 132 56 79 172 126 279 113 112 -13 186 -43 250 -101 50 -45
76 -49 188 -36 52 7 107 12 123 12 15 0 27 2 27 5 0 2 -16 30 -37 62 -59 92
-134 259 -138 305 -9 113 64 194 185 207 69 8 74 25 24 75 -53 53 -108 78
-185 84 -113 8 -178 -36 -230 -152 l-21 -49 -37 41 c-21 22 -48 43 -62 46 -13
3 -46 10 -72 16 -115 25 -192 88 -294 243 -84 126 -139 164 -271 182 -64 9
-72 23 -43 75 39 70 18 120 -52 120 -39 0 -40 -1 -130 -130 -29 -41 -61 -76
-71 -78 -27 -6 -19 11 69 142 110 163 106 159 139 147 116 -45 246 41 246 162
0 48 15 52 185 51 142 0 211 -14 321 -64 128 -58 272 -175 431 -350 59 -66
111 -120 114 -120 4 0 10 11 13 24 l6 25 43 -19 c23 -10 54 -21 68 -23 14 -3
71 -19 125 -37 97 -31 536 -124 560 -118 19 5 -163 229 -295 363 -65 66 -188
199 -273 295 -358 404 -668 640 -968 738 -232 76 -547 112 -805 91z m548 -159
c352 -53 739 -287 1009 -610 91 -108 258 -290 427 -465 162 -167 157 -160 97
-151 -63 10 -218 61 -381 126 -168 67 -166 66 -216 130 -157 202 -464 393
-739 460 -98 23 -264 35 -330 23 l-45 -8 -16 65 c-21 83 -79 230 -135 342
l-43 87 57 6 c31 4 61 8 67 9 22 6 176 -3 248 -14z m394 -1652 c11 -13 32 -45
47 -73 33 -62 73 -108 151 -174 55 -46 62 -58 96 -148 21 -54 36 -99 35 -101
-2 -1 -34 9 -72 24 -184 69 -291 167 -349 319 -32 86 -33 138 -3 159 32 23 71
20 95 -6z m-369 -120 c18 -18 14 -60 -14 -145 -135 -409 -473 -755 -830 -848
-99 -26 -113 -19 -70 32 49 58 103 198 136 348 16 73 31 90 109 120 129 49
258 158 507 428 65 71 74 77 110 77 22 0 45 -5 52 -12z"/>
<path d="M455 1136 c-18 -13 -17 -14 6 -28 27 -17 168 -31 188 -18 19 11 4 50
-19 50 -10 0 -22 -5 -25 -10 -4 -7 -14 -5 -28 5 -27 19 -97 20 -122 1z"/>
</g>
</svg>
